<?xml version="1.0" encoding="utf-8"?>
<!-- Generator: Adobe Illustrator 22.0.1, SVG Export Plug-In . SVG Version: 6.00 Build 0)  -->
<svg version="1.1" xmlns="http://www.w3.org/2000/svg" xmlns:xlink="http://www.w3.org/1999/xlink" x="0px" y="0px"
	 viewBox="0 0 512 512" enable-background="new 0 0 512 512" xml:space="preserve">
<g id="레이어_1">
	<path fill="#FFFFFF" stroke="#FFD700" stroke-width="10" stroke-miterlimit="10" d="M169.5,111.7l54.2,54.2L208,201.8l-35.8,15.7
		L118,163.2c-8,26.5-1.6,56.4,19.3,77.3c23.9,23.9,59.6,28.9,88.5,15l150,150c9.2,9.2,24.1,9.2,33.4,0l2.7-2.7
		c9.2-9.2,9.2-24.1,0-33.4l-150-150c13.9-28.8,9-64.5-15-88.5C225.9,110.1,196,103.7,169.5,111.7z"/>
</g>
<g id="레이어_2">
	<path fill="#FFFFFF" stroke="#FFD700" stroke-width="10" stroke-miterlimit="10" d="M416.3,133.2c-12.8-12.8-33.5-12.8-46.2,0
		L157,346.3l-21.8,68.1l68.1-21.8l213.1-213.1C429.1,166.7,429.1,146,416.3,133.2z"/>
	<path fill="#FFFFFF" stroke="#FFD700" stroke-width="10" stroke-miterlimit="10" d="M157,346.3c0,0,39.6,7.9,46.2,46.2"/>
	<line fill="#FFFFFF" stroke="#FFD700" stroke-width="10" stroke-miterlimit="10" x1="362.3" y1="141" x2="408.6" y2="187.2"/>
</g>
</svg>
